<svg width="18" height="18" viewBox="0 0 18 18" fill="none" xmlns="http://www.w3.org/2000/svg">
<path d="M13.3523 9.10187C13.3001 9.04851 13.2378 9.00607 13.169 8.97703C13.1002 8.948 13.0264 8.93294 12.9517 8.93273C12.8771 8.93253 12.8031 8.94719 12.7342 8.97585C12.6653 9.00451 12.6027 9.04661 12.5502 9.09968C12.4977 9.15276 12.4563 9.21575 12.4284 9.28499C12.4005 9.35423 12.3867 9.42833 12.3877 9.50297C12.3888 9.57761 12.4046 9.6513 12.4344 9.71975C12.4642 9.78819 12.5073 9.85002 12.5613 9.90163C13.0385 10.3712 13.4171 10.9314 13.6749 11.5493C13.9327 12.1672 14.0645 12.8304 14.0625 13.4999C14.0625 14.1879 12.0905 15.1874 9.00003 15.1874C5.9096 15.1874 3.93753 14.1874 3.93753 13.4988C3.93563 12.8339 4.06565 12.1752 4.32005 11.5608C4.57445 10.9465 4.94818 10.3887 5.4196 9.9198C5.47292 9.86781 5.51539 9.80576 5.54454 9.73723C5.57369 9.66871 5.58894 9.59507 5.58942 9.52061C5.58989 9.44614 5.57557 9.37232 5.54729 9.30343C5.51901 9.23454 5.47733 9.17195 5.42467 9.1193C5.37202 9.06664 5.30943 9.02496 5.24054 8.99668C5.17165 8.9684 5.09783 8.95408 5.02336 8.95456C4.94889 8.95503 4.87526 8.97028 4.80674 8.99943C4.73821 9.02858 4.67616 9.07105 4.62417 9.12437C4.04785 9.69766 3.59097 10.3796 3.28 11.1307C2.96903 11.8817 2.81014 12.687 2.81253 13.4999C2.81253 15.3267 6.00021 16.3124 9.00003 16.3124C11.9998 16.3124 15.1875 15.3267 15.1875 13.4999C15.19 12.6816 15.029 11.8709 14.7138 11.1157C14.3986 10.3604 13.9357 9.67573 13.3523 9.10187Z" fill="#1C1B21"/>
<path d="M9 9.5625C9.77876 9.5625 10.54 9.33157 11.1876 8.89891C11.8351 8.46625 12.3398 7.8513 12.6378 7.13182C12.9358 6.41233 13.0138 5.62063 12.8618 4.85683C12.7099 4.09303 12.3349 3.39144 11.7842 2.84077C11.2336 2.2901 10.532 1.91509 9.76817 1.76316C9.00437 1.61123 8.21267 1.68921 7.49318 1.98723C6.7737 2.28525 6.15875 2.78993 5.72609 3.43744C5.29343 4.08496 5.0625 4.84624 5.0625 5.625C5.06371 6.66892 5.47894 7.66974 6.2171 8.4079C6.95526 9.14607 7.95608 9.5613 9 9.5625ZM9 2.8125C9.55626 2.8125 10.1 2.97745 10.5625 3.28649C11.0251 3.59553 11.3855 4.03479 11.5984 4.5487C11.8113 5.06262 11.867 5.62812 11.7585 6.17369C11.6499 6.71926 11.3821 7.2204 10.9887 7.61374C10.5954 8.00707 10.0943 8.27494 9.54869 8.38346C9.00312 8.49198 8.43762 8.43628 7.9237 8.22341C7.40979 8.01054 6.97053 7.65006 6.66149 7.18754C6.35245 6.72503 6.1875 6.18126 6.1875 5.625C6.18838 4.87935 6.48498 4.16449 7.01223 3.63723C7.53949 3.10998 8.25435 2.81338 9 2.8125Z" fill="#1C1B21"/>
</svg>
