<svg width="16" height="16" viewBox="0 0 16 16" fill="none" xmlns="http://www.w3.org/2000/svg">
<path d="M8 2.75C6.96165 2.75 5.94662 3.05791 5.08326 3.63478C4.2199 4.21166 3.54699 5.0316 3.14963 5.99091C2.75227 6.95022 2.64831 8.00582 2.85088 9.02422C3.05345 10.0426 3.55347 10.9781 4.28769 11.7123C5.02192 12.4465 5.95738 12.9466 6.97578 13.1491C7.99418 13.3517 9.04978 13.2477 10.0091 12.8504C10.9684 12.453 11.7883 11.7801 12.3652 10.9167C12.9421 10.0534 13.25 9.03835 13.25 8C13.2485 6.60808 12.6949 5.2736 11.7106 4.28937C10.7264 3.30513 9.39192 2.75152 8 2.75ZM10.39 9.81C10.3435 9.86896 10.2842 9.91666 10.2167 9.94956C10.1492 9.98245 10.0751 9.9997 10 10C9.88694 10.0009 9.77716 9.96196 9.68994 9.89L7.68994 8.39C7.63105 8.34341 7.58339 8.28417 7.55051 8.21665C7.51763 8.14914 7.50037 8.07509 7.5 8V4.5C7.5 4.36739 7.55268 4.24021 7.64645 4.14645C7.74022 4.05268 7.86739 4 8 4C8.13261 4 8.25979 4.05268 8.35356 4.14645C8.44732 4.24021 8.5 4.36739 8.5 4.5V7.76L10.3101 9.11C10.3621 9.15011 10.4056 9.20026 10.4379 9.25747C10.4702 9.31469 10.4906 9.37781 10.4981 9.44309C10.5056 9.50837 10.4998 9.57448 10.4813 9.63751C10.4627 9.70053 10.4317 9.75919 10.39 9.81Z" fill="black" fill-opacity="0.6"/>
<path d="M8 0.5C6.51664 0.5 5.0666 0.939867 3.83323 1.76398C2.59986 2.58809 1.63856 3.75943 1.07091 5.12987C0.50325 6.50032 0.354725 8.00832 0.644114 9.46318C0.933503 10.918 1.64781 12.2544 2.6967 13.3033C3.7456 14.3522 5.08197 15.0665 6.53683 15.3559C7.99168 15.6453 9.49968 15.4968 10.8701 14.9291C12.2406 14.3614 13.4119 13.4001 14.236 12.1668C15.0601 10.9334 15.5 9.48336 15.5 8C15.4976 6.01162 14.7066 4.10537 13.3006 2.69937C11.8946 1.29337 9.98838 0.502419 8 0.5ZM8 14.2833C6.75728 14.2833 5.54246 13.9148 4.50917 13.2244C3.47589 12.534 2.67054 11.5527 2.19497 10.4045C1.7194 9.2564 1.59497 7.99303 1.83741 6.77418C2.07985 5.55534 2.67828 4.43576 3.55702 3.55702C4.43576 2.67828 5.55534 2.07985 6.77419 1.83741C7.99303 1.59496 9.2564 1.71939 10.4045 2.19496C11.5527 2.67053 12.534 3.47588 13.2244 4.50917C13.9148 5.54246 14.2833 6.75728 14.2833 8C14.2817 9.66595 13.6192 11.2632 12.4412 12.4412C11.2632 13.6192 9.66595 14.2817 8 14.2833Z" fill="black" fill-opacity="0.6"/>
</svg>
