<svg width="23" height="17" viewBox="0 0 23 17" fill="none" xmlns="http://www.w3.org/2000/svg">
<path d="M5.75 1.59922C5.75 0.964113 6.26489 0.449219 6.9 0.449219H21.85C22.4851 0.449219 23 0.964113 23 1.59922C23 2.23432 22.4851 2.74922 21.85 2.74922H6.9C6.26489 2.74922 5.75 2.23428 5.75 1.59922ZM21.85 7.34922H1.15C0.514895 7.34922 0 7.86416 0 8.49922C0 9.13432 0.514895 9.64922 1.15 9.64922H21.85C22.4851 9.64922 23 9.13432 23 8.49922C23 7.86416 22.4851 7.34922 21.85 7.34922ZM21.85 14.2492H11.5C10.8649 14.2492 10.35 14.7641 10.35 15.3992C10.35 16.0343 10.8649 16.5492 11.5 16.5492H21.85C22.4851 16.5492 23 16.0343 23 15.3992C23 14.7641 22.4851 14.2492 21.85 14.2492Z" fill="#1C1B21"/>
</svg>
