<svg width="21" height="21" viewBox="0 0 21 21" fill="none" xmlns="http://www.w3.org/2000/svg">
<path fill-rule="evenodd" clip-rule="evenodd" d="M7.17334 0.844971H14.6733C18.1246 0.844971 20.9233 3.64372 20.9233 7.09497V14.595C20.9233 18.0462 18.1246 20.845 14.6733 20.845H7.17334C3.72209 20.845 0.92334 18.0462 0.92334 14.595V7.09497C0.92334 3.64372 3.72209 0.844971 7.17334 0.844971ZM14.6733 18.97C17.0858 18.97 19.0483 17.0075 19.0483 14.595V7.09497C19.0483 4.68247 17.0858 2.71997 14.6733 2.71997H7.17334C4.76084 2.71997 2.79834 4.68247 2.79834 7.09497V14.595C2.79834 17.0075 4.76084 18.97 7.17334 18.97H14.6733Z" fill="#1C1B21"/>
<path fill-rule="evenodd" clip-rule="evenodd" d="M5.92334 10.845C5.92334 8.08372 8.16209 5.84497 10.9233 5.84497C13.6846 5.84497 15.9233 8.08372 15.9233 10.845C15.9233 13.6062 13.6846 15.845 10.9233 15.845C8.16209 15.845 5.92334 13.6062 5.92334 10.845ZM7.79834 10.845C7.79834 12.5675 9.20084 13.97 10.9233 13.97C12.6458 13.97 14.0483 12.5675 14.0483 10.845C14.0483 9.12122 12.6458 7.71997 10.9233 7.71997C9.20084 7.71997 7.79834 9.12122 7.79834 10.845Z" fill="#1C1B21"/>
<circle cx="16.2983" cy="5.46996" r="0.66625" fill="#1C1B21"/>
</svg>
