<svg width="20" height="19" viewBox="0 0 20 19" fill="none" xmlns="http://www.w3.org/2000/svg">
<path d="M4.94 2.84499C4.93974 3.37543 4.72877 3.88403 4.35351 4.25892C3.97825 4.6338 3.46944 4.84426 2.939 4.84399C2.40857 4.84373 1.89997 4.63276 1.52508 4.2575C1.1502 3.88224 0.939737 3.37343 0.940003 2.84299C0.940268 2.31256 1.15124 1.80396 1.5265 1.42907C1.90176 1.05419 2.41057 0.843729 2.941 0.843994C3.47144 0.84426 3.98004 1.05523 4.35492 1.43049C4.72981 1.80575 4.94027 2.31456 4.94 2.84499ZM5 6.32499H1V18.845H5V6.32499ZM11.32 6.32499H7.34V18.845H11.28V12.275C11.28 8.615 16.05 8.27499 16.05 12.275V18.845H20V10.915C20 4.74499 12.94 4.97499 11.28 8.00499L11.32 6.32499Z" fill="#1C1B21"/>
</svg>
