<svg width="18" height="18" viewBox="0 0 18 18" fill="none" xmlns="http://www.w3.org/2000/svg">
<path fill-rule="evenodd" clip-rule="evenodd" d="M11.549 6.63604C10.8624 4.97815 9.1003 4.03615 7.34036 4.38616C5.58039 4.73617 4.31276 6.28069 4.31274 8.07515C4.31274 9.0725 4.70887 10.0291 5.41404 10.7344C6.68274 12.0034 8.67122 12.1996 10.1633 11.2027C11.6555 10.206 12.2356 8.29393 11.549 6.63604ZM7.12092 3.28277C9.40734 2.82808 11.6965 4.05182 12.5884 6.2056C13.4804 8.3594 12.7267 10.8433 10.7882 12.1382C8.84979 13.4332 6.26661 13.1784 4.61844 11.5298C3.70236 10.6135 3.18773 9.37085 3.18774 8.07515C3.18777 5.74396 4.83454 3.73747 7.12092 3.28277Z" fill="#1C1B21"/>
<path fill-rule="evenodd" clip-rule="evenodd" d="M11.9992 12.0002C12.2189 11.7806 12.5751 11.7806 12.7948 12.0002L14.648 13.8535C14.8677 14.0732 14.8677 14.4293 14.648 14.649C14.4283 14.8687 14.0722 14.8687 13.8525 14.649L11.9992 12.7958C11.7796 12.5761 11.7796 12.2199 11.9992 12.0002Z" fill="#1C1B21"/>
</svg>
