<svg width="21" height="16" viewBox="0 0 21 16" fill="none" xmlns="http://www.w3.org/2000/svg">
<path d="M20.4789 1.881C19.7517 2.2 18.9768 2.41144 18.1689 2.51411C19 2.01789 19.6343 1.23811 19.9326 0.298222C19.1577 0.760222 18.3021 1.08656 17.3903 1.26867C16.6546 0.485222 15.6059 0 14.4619 0C12.2423 0 10.4555 1.80156 10.4555 4.01011C10.4555 4.32789 10.4823 4.63344 10.5483 4.92433C7.21534 4.76178 4.26612 3.16433 2.2849 0.730889C1.93901 1.331 1.73612 2.01789 1.73612 2.75733C1.73612 4.14578 2.45112 5.37656 3.5169 6.08911C2.87278 6.07689 2.2409 5.88989 1.70556 5.59533C1.70556 5.60756 1.70556 5.62344 1.70556 5.63933C1.70556 7.58756 3.09523 9.20578 4.91756 9.57856C4.59123 9.66778 4.23556 9.71056 3.86645 9.71056C3.60978 9.71056 3.35067 9.69589 3.10745 9.64211C3.6269 11.2298 5.10089 12.397 6.85356 12.4349C5.48956 13.5019 3.75767 14.1448 1.88278 14.1448C1.55401 14.1448 1.23867 14.1301 0.92334 14.0898C2.69923 15.235 4.8039 15.8889 7.07356 15.8889C14.4509 15.8889 18.4842 9.77778 18.4842 4.48067C18.4842 4.30344 18.4781 4.13233 18.4696 3.96244C19.2652 3.39778 19.9338 2.69256 20.4789 1.881Z" fill="#1C1B21"/>
</svg>
