<svg width="24" height="25" viewBox="0 0 24 25" fill="none" xmlns="http://www.w3.org/2000/svg">
<path d="M10 15.6899L15.19 12.6899L10 9.68994V15.6899ZM21.56 7.85994C21.69 8.32994 21.78 8.95994 21.84 9.75994C21.91 10.5599 21.94 11.2499 21.94 11.8499L22 12.6899C22 14.8799 21.84 16.4899 21.56 17.5199C21.31 18.4199 20.73 18.9999 19.83 19.2499C19.36 19.3799 18.5 19.4699 17.18 19.5299C15.88 19.5999 14.69 19.6299 13.59 19.6299L12 19.6899C7.81 19.6899 5.2 19.5299 4.17 19.2499C3.27 18.9999 2.69 18.4199 2.44 17.5199C2.31 17.0499 2.22 16.4199 2.16 15.6199C2.09 14.8199 2.06 14.1299 2.06 13.5299L2 12.6899C2 10.4999 2.16 8.88994 2.44 7.85994C2.69 6.95994 3.27 6.37994 4.17 6.12994C4.64 5.99994 5.5 5.90994 6.82 5.84994C8.12 5.77994 9.31 5.74994 10.41 5.74994L12 5.68994C16.19 5.68994 18.8 5.84994 19.83 6.12994C20.73 6.37994 21.31 6.95994 21.56 7.85994Z" fill="#1C1B21"/>
</svg>
